<?xml version="1.0" standalone="no"?>
<!DOCTYPE svg PUBLIC "-//W3C//DTD SVG 20010904//EN"
 "http://www.w3.org/TR/2001/REC-SVG-20010904/DTD/svg10.dtd">
<svg version="1.0" xmlns="http://www.w3.org/2000/svg"
 width="500.000000pt" height="500.000000pt" viewBox="0 0 500.000000 500.000000"
 preserveAspectRatio="xMidYMid meet">

<g transform="translate(0.000000,500.000000) scale(0.100000,-0.100000)"
fill="#000000" stroke="none">
<path d="M2395 3744 c-483 -52 -875 -342 -1050 -777 -160 -396 -107 -841 143
-1194 53 -76 64 -84 46 -35 -19 53 -17 103 6 165 48 129 205 195 331 140 l46
-21 -35 52 c-49 73 -77 131 -104 216 -19 63 -23 96 -23 210 0 114 4 147 23
210 63 198 191 355 372 453 115 63 197 82 347 82 l131 0 -34 28 c-49 41 -84
107 -91 170 -13 125 71 238 202 272 l30 8 -40 8 c-52 10 -248 18 -300 13z"/>
<path d="M3796 2906 c-22 -8 -51 -23 -64 -33 -23 -17 -531 -616 -527 -620 1
-2 20 6 43 17 109 53 248 -4 300 -123 17 -39 15 -120 -4 -165 -8 -20 -11 -32
-6 -27 5 6 80 96 168 200 87 105 200 239 251 299 108 127 133 173 133 242 0
152 -154 261 -294 210z"/>
<path d="M2219 2776 c-60 -21 -96 -54 -125 -111 -33 -69 -31 -150 5 -209 14
-22 124 -121 260 -233 130 -108 271 -225 314 -261 76 -63 77 -64 55 -26 -36
61 -33 155 7 220 45 72 108 108 189 107 34 0 73 -6 87 -13 21 -11 22 -11 9 2
-62 61 -613 505 -645 519 -47 22 -105 23 -156 5z"/>
</g>
</svg>
